<?xml version="1.0" encoding="utf-8"?>
<svg preserveAspectRatio="xMidYMid meet" viewBox="0 0 486.4 486.4" style="enable-background:new 0 0 486.4 486.4;" xmlns="http://www.w3.org/2000/svg" xmlns:xlink="http://www.w3.org/1999/xlink">
  <defs>
    <linearGradient id="linearGradient582" x1="0.485294" x2="0.411765" y1="0.511364" y2="0.602273" xlink:href="#linearGradient579"/>
    <linearGradient id="linearGradient579">
      <stop id="stop580" offset="0" stop-opacity="0.408333" stop-color="#000000"/>
      <stop id="stop581" offset="1" stop-opacity="0" stop-color="#000000"/>
    </linearGradient>
    <linearGradient id="linearGradient584" x1="0.507353" x2="0.327206" y1="0.122807" y2="1.096491" xlink:href="#linearGradient585"/>
    <linearGradient id="linearGradient585">
      <stop id="stop586" offset="0" stop-opacity="0.175" stop-color="#ffffff"/>
      <stop id="stop587" offset="1" stop-opacity="0.375" stop-color="#ffffff"/>
    </linearGradient>
    <linearGradient id="linearGradient589" xlink:href="#linearGradient585"/>
  </defs>
  <g transform="matrix(0.835195, 0.011342, -0.011947, 0.879733, 28.404385, 140.460327)" style="">
    <g>
      <g>
        <path d="M 490.182 159.215 L 423.441 43.616 C 421.744 40.677 418.608 38.866 415.214 38.866 L 281.731 38.866 C 278.331 38.866 275.19 40.683 273.495 43.631 L 209.482 154.983 L 81.261 155.462 C 77.88 155.475 74.76 157.284 73.07 160.212 L 6.328 275.812 C 4.631 278.751 4.631 282.373 6.328 285.312 L 73.069 400.911 C 74.766 403.85 77.902 405.661 81.296 405.661 L 214.779 405.661 C 218.177 405.661 221.316 403.846 223.012 400.902 L 287.13 289.543 L 415.249 289.065 C 418.631 289.052 421.75 287.243 423.441 284.315 L 490.182 168.716 C 491.88 165.776 491.88 162.154 490.182 159.215 Z M 209.287 386.66 L 86.781 386.66 L 25.525 280.562 L 86.794 174.442 L 209.312 173.984 L 270.659 280.073 L 209.287 386.66 Z M 409.717 270.085 L 287.103 270.542 L 225.951 164.457 L 287.227 57.866 L 409.728 57.866 L 470.984 163.965 L 409.717 270.085 Z" transform="matrix(-0.870718, -0.491783, 0.491783, -0.870718, 355.11028, 537.880101)"/>
        <path d="M 423.753 184.366 C 421.221 179.771 415.443 178.099 410.848 180.63 C 406.252 183.163 404.58 188.941 407.112 193.536 L 440.586 254.286 C 442.317 257.427 445.565 259.203 448.915 259.203 C 450.465 259.203 452.037 258.823 453.491 258.022 C 458.087 255.489 459.759 249.711 457.227 245.116 L 423.753 184.366 Z" transform="matrix(-0.870718, -0.491783, 0.491783, -0.870718, 700.606227, 622.831023)"/>
        <path d="M 193.199 186.055 C 190.667 181.46 184.889 179.788 180.294 182.319 C 175.698 184.852 174.026 190.63 176.558 195.225 L 210.032 255.975 C 211.763 259.116 215.011 260.892 218.361 260.892 C 219.911 260.892 221.483 260.512 222.937 259.711 C 227.533 257.178 229.205 251.4 226.673 246.805 L 193.199 186.055 Z" transform="matrix(-0.870718, -0.491783, 0.491783, -0.870718, 268.474147, 512.608069)"/>
      </g>
    </g>
  </g>
  <g transform="matrix(1, 0, 0, 1, -6.097748, -41.187531)">
    <title>Layer 1</title>
    <path d="m96.858368,198.902649c2.913521,-12.972153 5.827034,-102.335815 32.048752,-100.894463c93.232727,2.882706 189.378983,-93.687716 259.303513,121.073357c215.600708,100.89447 14.991333,181.970367 -155.691345,174.763641c-168.657616,-7.060974 -312.65744,-128.640442 -135.660904,-194.942535l-0.000015,0z" id="path575" stroke-linejoin="round" stroke="#000000" fill-rule="evenodd" fill="#ffffff" style="stroke-width: 19px;"/>
    <path d="m89.488083,230.729645c107.800339,67.743439 285.525223,25.944275 292.809067,-7.206757c10.197327,11.530807 0,43.240479 0,43.240479c-46.616394,60.536682 -272.414383,47.564545 -297.179337,4.324066c-2.913521,-11.530823 2.913528,-36.033737 4.3703,-40.357788l-0.000031,0z" id="path576" stroke-width="5" stroke="#000000" fill-rule="evenodd"/>
    <path d="m130.277405,122.628433c27.678467,-24.502945 148.589661,10.089447 164.614044,28.826981c5.827057,31.709702 -148.589676,7.206757 -164.614044,-28.826981z" id="path578" stroke-width="1.0000000pt" fill-rule="evenodd" fill="url(#linearGradient582)"/>
    <path d="m130.277405,158.66217c13.110855,30.268341 64.097519,100.89444 150.046448,33.151031c-71.381317,2.882706 -101.973328,-5.765396 -150.046448,-33.151031z" id="path583" stroke-width="1.0000000pt" fill-rule="evenodd" fill="url(#linearGradient584)"/>
    <path d="m160.869385,99.566841c18.937912,8.648102 138.392334,41.799126 151.503204,31.709694c14.567596,-5.765404 11.654114,-8.648102 4.3703,-10.089455c-11.654114,7.206749 -32.048767,11.5308 -155.873505,-21.620239z" id="path588" stroke-width="1.0000000pt" fill-rule="evenodd" fill="url(#linearGradient589)"/>
    <path d="m106.969223,246.584488c17.48114,8.648087 71.381302,20.178879 91.77597,21.620255c14.567612,10.089417 7.283813,25.944275 1.456772,37.475067c-39.332565,0 -84.492172,-10.089447 -96.146263,-23.061615c-7.283813,-12.972107 -4.3703,-23.061584 2.913521,-36.033707z" id="path590" stroke-width="1.8783400pt" stroke="#000000" fill-rule="evenodd" fill-opacity="0.316667" fill="#ffffff"/>
  </g>
</svg>
